<?xml version="1.0" encoding="UTF-8" standalone="no"?>
<!-- Created with Inkscape (http://www.inkscape.org/) -->

<svg
   xmlns:dc="http://purl.org/dc/elements/1.1/"
   xmlns:cc="http://creativecommons.org/ns#"
   xmlns:rdf="http://www.w3.org/1999/02/22-rdf-syntax-ns#"
   xmlns:svg="http://www.w3.org/2000/svg"
   xmlns="http://www.w3.org/2000/svg"
   xmlns:sodipodi="http://sodipodi.sourceforge.net/DTD/sodipodi-0.dtd"
   xmlns:inkscape="http://www.inkscape.org/namespaces/inkscape"
   version="1.1"
   id="svg869"
   width="666.66669"
   height="666.66669"
   viewBox="0 0 666.66669 666.66669"
   sodipodi:docname="antenna.svg"
   inkscape:version="0.92.5 (2060ec1f9f, 2020-04-08)">
  <metadata
     id="metadata875">
    <rdf:RDF>
      <cc:Work
         rdf:about="">
        <dc:format>image/svg+xml</dc:format>
        <dc:type
           rdf:resource="http://purl.org/dc/dcmitype/StillImage" />
        <dc:title></dc:title>
      </cc:Work>
    </rdf:RDF>
  </metadata>
  <defs
     id="defs873" />
  <sodipodi:namedview
     pagecolor="#ffffff"
     bordercolor="#666666"
     borderopacity="1"
     objecttolerance="10"
     gridtolerance="10"
     guidetolerance="10"
     inkscape:pageopacity="0"
     inkscape:pageshadow="2"
     inkscape:window-width="1920"
     inkscape:window-height="1050"
     id="namedview871"
     showgrid="false"
     inkscape:zoom="0.9418662"
     inkscape:cx="519.91603"
     inkscape:cy="251.8589"
     inkscape:window-x="0"
     inkscape:window-y="30"
     inkscape:window-maximized="1"
     inkscape:current-layer="svg869" />
  <path
     style="fill:#ffffff;stroke-width:2.66666675"
     d="m 216.60746,663.36102 c -1.76,-1.76 -3.1632,-5.06 -3.11824,-7.33334 0.045,-2.27334 23.30558,-97.5855 51.6902,-211.80478 l 51.60842,-207.67144 -6.58072,-9.6619 c -8.56742,-12.57878 -6.96272,-25.34358 4.48314,-35.6619 14.32054,-12.90984 35.00364,-8.82812 44.06578,8.69612 5.51724,10.66922 5.01076,16.38106 -2.424,27.33682 l -6.40878,9.44386 15.85674,64.92828 c 8.72124,35.71056 16.9266,68.52826 18.23414,72.92826 1.30754,4.4 17.61608,69.712 36.2412,145.13776 24.47722,99.12492 33.13536,138.30074 31.23566,141.33334 -3.83912,6.12864 -13.27438,6.72494 -16.20392,1.02406 -1.36468,-2.65566 -4.55844,-13.46038 -7.09726,-24.01042 l -4.616,-19.18198 -44.09526,-38.15136 c -24.2524,-20.98328 -45.0869,-38.15138 -46.29894,-38.15138 -1.21202,0 -21.98164,17.21632 -46.15476,38.25848 l -43.9511,38.2585 -4.7457,20.13026 c -5.96316,25.29438 -12.8836,32.98974 -21.7206,24.15276 z m 73.85948,-112.74336 27.35204,-23.9434 -11.53908,-10.10784 c -6.34652,-5.5593 -15.99892,-13.75378 -21.4498,-18.20998 l -9.91072,-8.10216 -1.4662,6.15336 c -0.80644,3.38436 -5.64662,23.32126 -10.75598,44.30426 -5.10936,20.98298 -9.28974,38.75104 -9.28974,39.48456 0,2.2148 8.3828,-4.4759 37.05948,-29.5788 z m 112.05056,-15.6802 -11.08986,-44.31256 -9.67676,7.91682 c -5.3222,4.35428 -14.87632,12.47136 -21.23138,18.03796 l -11.55464,10.1211 31.3337,27.26216 c 17.23356,14.99418 31.77812,26.81776 32.32126,26.2746 0.54314,-0.54312 -4.0029,-20.92816 -10.10232,-45.30008 z m -46.11726,-41.98664 c 12.27222,-10.41894 21.67216,-19.98062 20.88878,-21.24816 -4.43488,-7.17578 -41.9332,-49.14166 -43.9102,-49.14166 -1.29716,0 -12.04,11.34808 -23.8729,25.21796 -24.55182,28.7782 -25.16642,22.98188 5.21526,49.18368 9.52252,8.21242 17.77546,14.9317 18.33984,14.9317 0.56434,0 11.06702,-8.52458 23.33922,-18.94352 z m -47.94982,-76.14018 11.043,-12.96286 -8.80318,-10.48558 -8.80318,-10.48556 -2.745,10.50884 c -12.65424,48.4448 -12.93524,50.31072 -6.34196,42.1151 2.53406,-3.1499 9.5767,-11.56038 15.65032,-18.68994 z m 63.98334,-4.81684 c -3.61194,-14.22442 -7.07002,-26.36544 -7.6846,-26.98 -0.61456,-0.61456 -4.80944,3.47686 -9.32192,9.09204 l -8.20454,10.20944 15.09066,17.56904 c 8.29988,9.66296 15.44998,17.2097 15.88916,16.77052 0.43916,-0.43914 -2.15678,-12.43664 -5.76876,-26.66104 z m -26.35962,-38.59568 c 6.23334,-7.23816 11.38922,-14.73756 11.45758,-16.66536 0.1906,-5.38 -22.60862,-98.0824 -24.12426,-98.0896 -2.0741,-0.01 -24.61802,94.849 -23.58444,99.237 1.0182,4.32264 20.83984,28.6816 23.33744,28.67954 0.8692,-7.2e-4 6.68034,-5.92344 12.91368,-13.16158 z M 210.7408,384.76722 C 169.11574,353.24524 140.43594,310.8999 128.13516,262.8011 120.80496,234.13834 120.757,190.00028 128.02456,160.98756 148.03022,81.122962 213.84448,19.288762 295.4659,3.6719824 404.37406,-17.165598 511.2342,52.528762 539.0538,162.54042 c 7.4752,29.56036 6.15164,82.06682 -2.77298,110.0056 -13.94204,43.64592 -42.44332,83.96762 -77.89728,110.20384 -13.16668,9.74344 -21.10492,11.4155 -26.02888,5.48248 -4.5823,-5.52134 -1.08188,-11.29552 13.20564,-21.78352 19.11446,-14.0313 47.33334,-45.68868 55.96092,-62.77976 25.25962,-50.03908 29.45024,-104.69422 11.91002,-155.33366 -9.5547,-27.58486 -21.7061,-46.10868 -46.83808,-71.400698 -18.93878,-19.05942 -27.09266,-25.07154 -48,-35.39206 -29.3203,-14.4734 -53.5375,-20.22236 -85.18568,-20.22236 -31.67966,0 -55.86566,5.75024 -85.33334,20.2881 -21.34598,10.53104 -29.13066,16.31144 -49.45936,36.72542 -19.55528,19.63728 -26.2199,28.521458 -35.17822,46.893858 -15.6708,32.13886 -20.23556,51.68926 -20.23556,86.66668 0,34.76276 4.61316,54.73672 19.70852,85.33332 12.81998,25.98464 32.73084,49.89362 56.59496,67.95922 18.05476,13.6678 20.55124,17.65922 14.703,23.50746 -5.08956,5.08954 -13.3956,3.69952 -23.46668,-3.92712 z m 25.54984,-101.13278 c -16.60258,-21.74376 -21.40482,-38.11002 -21.48206,-73.21174 -0.0666,-30.28578 0.1008,-31.1462 9.93904,-51.05242 29.5838,-59.858718 100.9268,-84.951998 160.8845,-56.58748 17.6958,8.37144 41.60972,29.79976 50.84698,45.56198 23.7668,40.55496 22.22616,94.45422 -3.76312,131.6546 -10.5335,15.0773 -16.83166,18.6036 -23.43662,13.12196 -5.7109,-4.73962 -4.80004,-9.32962 4.34926,-21.91676 37.86822,-52.09718 19.16354,-123.26904 -39.63962,-150.8301 -13.19228,-6.18322 -18.67148,-7.14682 -40.63762,-7.14682 -23.29384,0 -26.8532,0.72062 -43.1245,8.73096 -36.22266,17.83238 -56.29254,49.946 -56.20658,89.93572 0.053,24.64428 4.48432,38.79992 18.0628,57.70016 10.02602,13.95552 11.12472,18.09948 6.12436,23.09984 -5.95756,5.95756 -12.52216,3.24392 -21.91682,-9.0599 z"
     id="path879"
     inkscape:connector-curvature="0"
     sodipodi:nodetypes="ccscsccccssscsccssscscccccccsscsccccscsscscsssccccsscccscccccccccccsssssssscscssssssssccsccssccssssccss" />
</svg>
