<?xml version="1.0" encoding="UTF-8" standalone="no"?>
<!-- Created with Inkscape (http://www.inkscape.org/) -->

<svg
   xmlns:dc="http://purl.org/dc/elements/1.1/"
   xmlns:cc="http://creativecommons.org/ns#"
   xmlns:rdf="http://www.w3.org/1999/02/22-rdf-syntax-ns#"
   xmlns:svg="http://www.w3.org/2000/svg"
   xmlns="http://www.w3.org/2000/svg"
   xmlns:sodipodi="http://sodipodi.sourceforge.net/DTD/sodipodi-0.dtd"
   xmlns:inkscape="http://www.inkscape.org/namespaces/inkscape"
   version="1.1"
   id="svg2"
   width="666.66669"
   height="666.66669"
   viewBox="0 0 666.66669 666.66669"
   sodipodi:docname="fiber.svg"
   inkscape:version="0.92.5 (2060ec1f9f, 2020-04-08)">
  <metadata
     id="metadata8">
    <rdf:RDF>
      <cc:Work
         rdf:about="">
        <dc:format>image/svg+xml</dc:format>
        <dc:type
           rdf:resource="http://purl.org/dc/dcmitype/StillImage" />
        <dc:title></dc:title>
      </cc:Work>
    </rdf:RDF>
  </metadata>
  <defs
     id="defs6" />
  <sodipodi:namedview
     pagecolor="#ffffff"
     bordercolor="#666666"
     borderopacity="1"
     objecttolerance="10"
     gridtolerance="10"
     guidetolerance="10"
     inkscape:pageopacity="0"
     inkscape:pageshadow="2"
     inkscape:window-width="1920"
     inkscape:window-height="1050"
     id="namedview4"
     showgrid="false"
     inkscape:zoom="0.35399999"
     inkscape:cx="333.33334"
     inkscape:cy="333.33334"
     inkscape:window-x="0"
     inkscape:window-y="30"
     inkscape:window-maximized="1"
     inkscape:current-layer="svg2" />
  <path
     style="fill:#ffffff;stroke-width:2.18140411"
     d="M 303.28536,659.13854 C 198.71579,647.15019 109.44458,574.4819 75.875265,474.02275 48.529587,392.18843 60.427701,303.19436 108.37108,230.96459 c 15.54988,-23.42686 50.37711,-60.15702 57.04043,-60.15702 0.96515,0 5.23735,4.04356 9.49383,8.98568 l 7.73904,8.98571 -15.93579,15.45207 c -26.45003,25.64716 -43.70858,50.78812 -57.92431,84.37986 -14.048086,33.1956 -22.480976,79.57381 -20.029059,110.15342 5.361238,66.86353 32.981479,125.88967 79.279099,169.42433 14.74068,13.86097 45.37854,36.71836 49.21698,36.71836 0.71332,0 1.30244,-50.79945 1.30914,-112.88766 0.008,-75.63323 0.80706,-115.751 2.42093,-121.56409 1.37681,-4.95931 6.11028,-12.37793 11.04869,-17.31639 l 8.63994,-8.63992 -0.72545,-72.1212 -0.72545,-72.12122 -6.87483,-19.73951 c -7.42066,-21.30671 -18.88919,-42.50438 -29.58971,-54.6916 -6.05825,-6.89995 -7.49426,-7.50599 -14.84366,-6.26431 -26.26732,4.43782 -49.40082,-19.804491 -43.56885,-45.657192 2.50853,-11.120186 8.23373,-18.639945 18.7855,-24.673725 30.02298,-17.167972 64.73846,13.485512 53.09596,46.88326 -2.14198,6.144477 -1.52288,7.756667 7.87354,20.503487 14.76495,20.02964 26.87473,45.48278 32.85459,69.05614 4.96146,19.55861 5.2247,24.03304 5.2247,88.80179 v 68.20539 l 8.18028,0.77447 c 4.49914,0.42597 18.24198,0.46389 30.53965,0.0842 l 22.3594,-0.69022 V 212.47487 82.10096 L 315.2464,76.827323 C 302.60351,68.502692 298.48419,61.30936 297.53495,45.898688 c -0.71112,-11.544857 -0.0564,-14.761027 4.31284,-21.193284 8.36324,-12.311398 17.94828,-17.5030693 32.31488,-17.5030693 14.36663,0 23.95168,5.1916713 32.31492,17.5031343 4.36945,6.432258 5.02397,9.648427 4.31283,21.193285 -0.94923,15.410671 -5.06856,22.604004 -17.71145,30.928634 l -8.00927,5.273638 V 212.49107 c 0,71.71452 0.73623,130.69335 1.63607,131.06411 0.89982,0.37074 14.55149,0.37534 30.33705,0.0115 l 28.70099,-0.66387 0.9392,-70.23176 c 0.85038,-63.58833 1.38868,-71.88254 5.69081,-87.68301 7.87043,-28.90585 23.09048,-57.68819 40.97137,-77.48019 6.67684,-7.39047 6.95854,-8.356311 4.85476,-16.644605 -9.06451,-35.711276 35.15422,-61.359255 62.19611,-36.075314 21.58535,20.182105 13.48959,54.267149 -15.13302,63.713459 -7.35963,2.4289 -11.89895,2.21662 -25.47739,-1.19135 -4.69757,-1.179 -6.76749,0.44468 -15.85585,12.43765 -5.74915,7.58652 -14.11843,21.64674 -18.59846,31.2449 -14.57397,31.22393 -15.5499,37.91072 -16.78248,114.99095 l -1.10627,69.18141 7.11487,5.98678 c 15.39173,12.95129 15.11837,10.44861 15.17175,138.89482 l 0.048,115.27635 10.36166,-6.01768 c 25.58092,-14.85649 56.88844,-44.49805 74.69662,-70.72176 58.52695,-86.18476 58.47861,-199.23569 -0.12239,-286.08072 -5.15369,-7.63766 -18.30392,-22.97392 -29.22277,-34.08066 l -19.85246,-20.19405 9.16608,-8.9958 9.16608,-8.99583 10.36532,8.46652 c 12.01007,9.80996 34.67679,35.77791 45.61896,52.26302 38.67851,58.27163 54.15888,128.09621 43.73281,197.25775 -16.10178,106.81112 -97.40536,197.27918 -201.01196,223.6699 -34.74315,8.84981 -65.70975,11.10749 -99.38979,7.24627 z M 192.37142,92.27703 c 5.89574,-5.895746 5.49377,-14.337174 -0.99156,-20.82249 -6.54122,-6.541234 -11.88959,-6.77051 -19.4376,-0.833224 -6.74715,5.307306 -7.76621,15.809654 -2.13749,22.029308 4.88443,5.397235 16.99631,5.19672 22.56665,-0.373594 z m 314.12219,0 c 5.89575,-5.895746 5.49378,-14.337174 -0.99154,-20.82249 -6.54123,-6.541234 -11.88959,-6.77051 -19.4376,-0.833224 -6.74714,5.307306 -7.76621,15.809654 -2.13751,22.029308 4.88445,5.397235 16.99634,5.19672 22.56665,-0.373594 z M 345.4433,53.764357 c 9.14652,-8.277463 1.63893,-24.748051 -11.28063,-24.748051 -12.74079,0 -19.99406,15.159586 -11.65962,24.369042 4.56424,5.043396 17.54908,5.257948 22.94025,0.379009 z"
     id="path817"
     inkscape:connector-curvature="0"
     sodipodi:nodetypes="csssccsssssssccccsscsscccscsccccsscscsscscccssscssccssccscssssccccssscccccscscccssscs" />
</svg>
